<?xml version="1.0"?>
<svg width="1024" height="1024" xmlns="http://www.w3.org/2000/svg" xmlns:svg="http://www.w3.org/2000/svg" class="svg-icon" version="1.1">
 <g class="layer">
  <title>Layer 1</title>
  <ellipse cx="512" cy="512" fill="#1c1c1f" id="svg_2" rx="510" ry="511"/>
  <path d="m515.17,496.8c-18.74,0 -33.94,15.19 -33.94,33.94c1.61,102.17 -11.51,200.65 -39.17,299.14c-3.86,13.74 3.04,43.11 32.69,43.11c14.82,0 28.44,-9.79 32.65,-24.77c19.13,-67.75 43.89,-177.34 41.69,-317.48c0.01,-18.74 -15.17,-33.94 -33.92,-33.94zm-1.22,-115.57c-86.63,-0.1 -147.08,66.56 -145.87,142.95c1.06,67.79 -5.3,135.62 -18.91,201.57c-3.8,18.35 8.02,36.33 26.36,40.1c18.45,3.78 36.3,-8 40.1,-26.36c14.62,-70.83 21.45,-143.64 20.32,-216.38c-0.58,-36.69 28.17,-74.22 77,-74.01c44.27,0.66 80.81,35.83 81.48,78.44c1.09,67.95 -3.97,136.22 -15,202.99c-3.07,18.47 9.46,35.95 27.94,39c28.24,4.71 37.91,-21.35 39,-27.96c11.71,-70.75 17.05,-143.12 15.94,-215.09c-1.24,-78.9 -67.79,-144.06 -148.35,-145.25zm-156.52,-27.97c-14.56,-11.79 -35.87,-9.62 -47.74,4.92c-36.23,44.54 -55.7,100.79 -54.79,158.37c0.83,53.14 -3.49,106.44 -12.88,158.44c-3.31,18.45 8.92,36.1 27.38,39.44c28.44,4.95 38.28,-20.94 39.44,-27.38c10.17,-56.34 14.85,-114.06 13.94,-171.57c-0.66,-42.25 13.01,-81.85 39.59,-114.5c11.81,-14.54 9.6,-35.9 -4.94,-47.74zm154.8,-88.14c-21.79,-0.58 -43.65,2.04 -64.74,7.03c-18.23,4.33 -29.51,22.6 -25.21,40.85c4.33,18.23 22.62,29.45 40.85,25.21c15.63,-3.69 31.77,-5.33 48.08,-5.22c106.66,1.6 194.76,86.96 196.38,190.3c0.83,53.56 -1.81,107.62 -7.89,160.68c-2.12,18.62 11.24,35.46 29.85,37.59c23.64,2.76 36.07,-16.8 37.59,-29.85a1313.74,1313.74 0 0 0 8.33,-169.47c-2.21,-139.64 -120.29,-255 -263.24,-257.12zm356.44,171.74c-4.04,-18.27 -21.93,-29.98 -40.46,-25.83c-18.3,4.04 -29.86,22.14 -25.82,40.46c6.66,30.27 6.94,52.9 6.65,87.11c-0.16,18.76 14.92,34.06 33.65,34.22l0.28,0c18.62,0 33.78,-15 33.94,-33.65c0.25,-31.36 0.57,-62.37 -8.24,-102.29zm-56.73,-128.28c-68.86,-98.12 -181.55,-157.75 -301.45,-159.55c-98.69,-1.19 -189.96,35.2 -257.85,103.11c-65.57,65.65 -100.91,152.86 -99.44,245.64l-0.17,30.36c-0.55,18.74 14.18,34.38 32.92,34.91c0.33,0.03 0.68,0.03 1.02,0.03c18.27,0 33.36,-14.56 33.89,-32.95l0.23,-33.43c-1.17,-74.24 27.09,-144.04 79.58,-196.55c54.81,-54.87 129.16,-84.38 208.83,-83.23c98.21,1.46 190.52,50.28 246.92,130.64c10.76,15.36 31.9,19.02 47.26,8.29c15.33,-10.78 19.03,-31.94 8.26,-47.27z" fill="#ffffff" id="svg_1" transform="rotate(-15.1818 515.013 510.998)"/>
 </g>
</svg>