<?xml version="1.0"?>
<svg width="328" height="120" xmlns="http://www.w3.org/2000/svg" xmlns:svg="http://www.w3.org/2000/svg" xmlns:xlink="http://www.w3.org/1999/xlink">
 <g class="layer">
  <title>Layer 1</title>
  <path d="m137.22,31.98c0,4.45 -3.66,8.12 -8.11,8.12c-4.44,0 -8.11,-3.67 -8.11,-8.12c0,-4.31 3.67,-7.98 8.11,-7.98c4.45,-0.06 8.11,3.61 8.11,7.98zm-1.41,14.36l0,46.17l-13.27,0l0,-46.17l13.27,0z" fill="#1c1c1f" id="svg_2"/>
  <path d="m189.89,66.37l0,26.14l-13.26,0l0,-23.89c0,-6.37 -3.48,-10.04 -8.95,-10.04c-3.67,0 -7.34,2.06 -9.21,5.28l0,28.71l-13.26,0l0,-46.23l13.26,0l0,5.48c2.51,-3.93 7.41,-6.38 12.62,-6.38c11.66,-0.06 18.8,7.99 18.8,20.93z" fill="#1c1c1f" id="svg_3"/>
  <path d="m215.26,46.34l11.4,0l0,12.62l-11.4,0l0,33.55l-13.26,0l0,-33.55l-8.56,0l0,-12.62l8.56,0l0,-3.41c0,-11.98 7.6,-18.8 18.41,-18.8c2.45,0 5.09,0.58 6.76,1.42l-0.64,11.65c-0.97,-0.26 -2.83,-0.64 -4.12,-0.64c-3.87,0 -7.15,2.83 -7.15,7.08l0,2.7z" fill="#1c1c1f" id="svg_4"/>
  <path d="m263.49,46.28l-0.78,12.43c-1.8,-0.65 -4.05,-1.04 -5.92,-1.04c-3.03,0 -7.79,2.45 -10.04,6.96l0,27.94l-13.27,0l0,-46.23l13.27,0l0,5.48c2.25,-3.93 7.21,-6.38 11.07,-6.38c2.38,-0.06 4.25,0.26 5.67,0.84z" fill="#1c1c1f" id="svg_5"/>
  <path d="m313,46.34l0,46.17l-13.26,0l0,-5.48c-2.26,3.74 -7.79,6.38 -13.65,6.38c-12.04,0 -21.57,-10.75 -21.57,-24.08c0,-13.33 9.53,-23.95 21.57,-23.95c5.73,0 11.39,2.64 13.65,6.37l0,-5.47l13.26,0l0,0.06zm-13.26,28.78l0,-11.26c-2,-3.42 -6.12,-5.93 -10.76,-5.93c-6.5,0 -11.46,4.9 -11.46,11.46c0,6.57 4.96,11.46 11.46,11.46c4.64,0 8.76,-2.44 10.76,-5.73z" fill="#1c1c1f" id="svg_6"/>
  <use id="svg_9" transform="matrix(0.0923973 0 0 0.0923973 -0.227436 -0.75375)" x="69.48" xlink:href="#svg_8" y="162.34"/>
 </g>
 <defs>
  <symbol class="svg-icon" height="1024" id="svg_8" version="1.1" width="1024" xmlns="http://www.w3.org/2000/svg" xmlns:svg="http://www.w3.org/2000/svg">
   <g class="layer">
    <title>Layer 1</title>
    <ellipse cx="512" cy="512" fill="#1c1c1f" id="svg_7" rx="510" ry="511"/>
    <path d="m515.17,496.8c-18.74,0 -33.94,15.19 -33.94,33.94c1.61,102.17 -11.51,200.65 -39.17,299.14c-3.86,13.74 3.04,43.11 32.69,43.11c14.82,0 28.44,-9.79 32.65,-24.77c19.13,-67.75 43.89,-177.34 41.69,-317.48c0.01,-18.74 -15.17,-33.94 -33.92,-33.94zm-1.22,-115.57c-86.63,-0.1 -147.08,66.56 -145.87,142.95c1.06,67.79 -5.3,135.62 -18.91,201.57c-3.8,18.35 8.02,36.33 26.36,40.1c18.45,3.78 36.3,-8 40.1,-26.36c14.62,-70.83 21.45,-143.64 20.32,-216.38c-0.58,-36.69 28.17,-74.22 77,-74.01c44.27,0.66 80.81,35.83 81.48,78.44c1.09,67.95 -3.97,136.22 -15,202.99c-3.07,18.47 9.46,35.95 27.94,39c28.24,4.71 37.91,-21.35 39,-27.96c11.71,-70.75 17.05,-143.12 15.94,-215.09c-1.24,-78.9 -67.79,-144.06 -148.35,-145.25l-0.01,0zm-156.52,-27.97c-14.56,-11.79 -35.87,-9.62 -47.74,4.92c-36.23,44.54 -55.7,100.79 -54.79,158.37c0.83,53.14 -3.49,106.44 -12.88,158.44c-3.31,18.45 8.92,36.1 27.38,39.44c28.44,4.95 38.28,-20.94 39.44,-27.38c10.17,-56.34 14.85,-114.06 13.94,-171.57c-0.66,-42.25 13.01,-81.85 39.59,-114.5c11.81,-14.54 9.6,-35.9 -4.94,-47.74l0,0.02zm154.8,-88.14c-21.79,-0.58 -43.65,2.04 -64.74,7.03c-18.23,4.33 -29.51,22.6 -25.21,40.85c4.33,18.23 22.62,29.45 40.85,25.21c15.63,-3.69 31.77,-5.33 48.08,-5.22c106.66,1.6 194.76,86.96 196.38,190.3c0.83,53.56 -1.81,107.62 -7.89,160.68c-2.12,18.62 11.24,35.46 29.85,37.59c23.64,2.76 36.07,-16.8 37.59,-29.85a1313.74,1313.74 0 0 0 8.33,-169.47c-2.21,-139.64 -120.29,-255 -263.24,-257.12zm356.44,171.74c-4.04,-18.27 -21.93,-29.98 -40.46,-25.83c-18.3,4.04 -29.86,22.14 -25.82,40.46c6.66,30.27 6.94,52.9 6.65,87.11c-0.16,18.76 14.92,34.06 33.65,34.22l0.28,0c18.62,0 33.78,-15 33.94,-33.65c0.25,-31.36 0.57,-62.37 -8.24,-102.29l0,-0.02zm-56.73,-128.28c-68.86,-98.12 -181.55,-157.75 -301.45,-159.55c-98.69,-1.19 -189.96,35.2 -257.85,103.11c-65.57,65.65 -100.91,152.86 -99.44,245.64l-0.17,30.36c-0.55,18.74 14.18,34.38 32.92,34.91c0.33,0.03 0.68,0.03 1.02,0.03c18.27,0 33.36,-14.56 33.89,-32.95l0.23,-33.43c-1.17,-74.24 27.09,-144.04 79.58,-196.55c54.81,-54.87 129.16,-84.38 208.83,-83.23c98.21,1.46 190.52,50.28 246.92,130.64c10.76,15.36 31.9,19.02 47.26,8.29c15.33,-10.78 19.03,-31.94 8.26,-47.27z" fill="#ffffff" id="svg_1" transform="rotate(-15.1818 515.013 510.998)"/>
   </g>
  </symbol>
 </defs>
</svg>